<svg xmlns="http://www.w3.org/2000/svg" xmlns:xlink="http://www.w3.org/1999/xlink" width="936" height="136" viewBox="0 0 701.94 102"><g id="graph0" class="graph" transform="scale(1 1) rotate(0) translate(4 98)"><title>G</title><polygon fill="#fff" stroke="transparent" points="-4 4 -4 -98 697.936 -98 697.936 4 -4 4"/><g id="clust1" class="cluster"><title>cluster_CPU</title><polygon fill="none" stroke="#000" points="82 -8 82 -86 431.936 -86 431.936 -8 82 -8"/><text x="256.968" y="-70.8" fill="#000" font-family="Source Sans Pro" font-size="14" text-anchor="middle">CPU</text></g><g id="clust2" class="cluster"><title>clusterGPU</title><polygon fill="none" stroke="#000" points="451.936 -8 451.936 -86 611.936 -86 611.936 -8 451.936 -8"/><text x="531.936" y="-70.8" fill="#000" font-family="Source Sans Pro" font-size="14" text-anchor="middle">GPU</text></g><g id="node1" class="node"><title>Simplify</title><polygon fill="none" stroke="#000" points="153.904 -52 90.032 -52 90.032 -16 153.904 -16 153.904 -52"/><text x="121.968" y="-31.599" fill="#000" font-family="Source Sans Pro" font-size="14" text-anchor="middle">Simplify</text></g><g id="node2" class="node"><title>Tile</title><polygon fill="none" stroke="#000" points="243.936 -52 189.936 -52 189.936 -16 243.936 -16 243.936 -52"/><text x="216.936" y="-31.599" fill="#000" font-family="Source Sans Pro" font-size="14" text-anchor="middle">Tile</text></g><g id="edge1" class="edge"><title>Simplify-&gt;Tile</title><path fill="none" stroke="#000" d="M154.1198,-34C162.3831,-34 171.3403,-34 179.8319,-34"/><polygon fill="#000" stroke="#000" points="189.881 -34 179.881 -38.5 184.881 -34 179.881 -34 179.881 -34 179.881 -34 184.881 -34 179.881 -29.5 189.881 -34 189.881 -34"/></g><g id="node3" class="node"><title>Cull</title><polygon fill="none" stroke="#000" points="333.936 -52 279.936 -52 279.936 -16 333.936 -16 333.936 -52"/><text x="306.936" y="-31.599" fill="#000" font-family="Source Sans Pro" font-size="14" text-anchor="middle">Cull</text></g><g id="edge2" class="edge"><title>Tile-&gt;Cull</title><path fill="none" stroke="#000" d="M243.939,-34C251.9637,-34 260.9025,-34 269.4669,-34"/><polygon fill="#000" stroke="#000" points="279.641 -34 269.641 -38.5 274.641 -34 269.641 -34 269.641 -34 269.641 -34 274.641 -34 269.641 -29.5 279.641 -34 279.641 -34"/></g><g id="node4" class="node"><title>Pack</title><polygon fill="none" stroke="#000" points="423.936 -52 369.936 -52 369.936 -16 423.936 -16 423.936 -52"/><text x="396.936" y="-31.599" fill="#000" font-family="Source Sans Pro" font-size="14" text-anchor="middle">Pack</text></g><g id="edge3" class="edge"><title>Cull-&gt;Pack</title><path fill="none" stroke="#000" d="M333.939,-34C341.9637,-34 350.9025,-34 359.4669,-34"/><polygon fill="#000" stroke="#000" points="369.641 -34 359.641 -38.5 364.641 -34 359.641 -34 359.641 -34 359.641 -34 364.641 -34 359.641 -29.5 369.641 -34 369.641 -34"/></g><g id="node5" class="node"><title>Fill</title><polygon fill="none" stroke="#000" points="513.936 -52 459.936 -52 459.936 -16 513.936 -16 513.936 -52"/><text x="486.936" y="-31.599" fill="#000" font-family="Source Sans Pro" font-size="14" text-anchor="middle">Fill</text></g><g id="edge5" class="edge"><title>Pack-&gt;Fill</title><path fill="none" stroke="#000" d="M423.939,-34C431.9637,-34 440.9025,-34 449.4669,-34"/><polygon fill="#000" stroke="#000" points="459.641 -34 449.641 -38.5 454.641 -34 449.641 -34 449.641 -34 449.641 -34 454.641 -34 449.641 -29.5 459.641 -34 459.641 -34"/></g><g id="node6" class="node"><title>Shade</title><polygon fill="none" stroke="#000" points="603.936 -52 549.936 -52 549.936 -16 603.936 -16 603.936 -52"/><text x="576.936" y="-31.599" fill="#000" font-family="Source Sans Pro" font-size="14" text-anchor="middle">Shade</text></g><g id="edge4" class="edge"><title>Fill-&gt;Shade</title><path fill="none" stroke="#000" d="M513.939,-34C521.9637,-34 530.9025,-34 539.4669,-34"/><polygon fill="#000" stroke="#000" points="549.641 -34 539.641 -38.5 544.641 -34 539.641 -34 539.641 -34 539.641 -34 544.641 -34 539.641 -29.5 549.641 -34 549.641 -34"/></g><g id="node8" class="node"><title>Image</title><text x="666.936" y="-31.599" fill="#000" font-family="Source Sans Pro" font-size="14" text-anchor="middle">Image</text></g><g id="edge7" class="edge"><title>Shade-&gt;Image</title><path fill="none" stroke="#000" d="M603.939,-34C611.9637,-34 620.9025,-34 629.4669,-34"/><polygon fill="#000" stroke="#000" points="639.641 -34 629.641 -38.5 634.641 -34 629.641 -34 629.641 -34 629.641 -34 634.641 -34 629.641 -29.5 639.641 -34 639.641 -34"/></g><g id="node7" class="node"><title>Paths</title><text x="27" y="-31.599" fill="#000" font-family="Source Sans Pro" font-size="14" text-anchor="middle">Paths</text></g><g id="edge6" class="edge"><title>Paths-&gt;Simplify</title><path fill="none" stroke="#000" d="M54.214,-34C62.0853,-34 70.8714,-34 79.4399,-34"/><polygon fill="#000" stroke="#000" points="89.707 -34 79.707 -38.5 84.707 -34 79.707 -34 79.707 -34 79.707 -34 84.707 -34 79.707 -29.5 89.707 -34 89.707 -34"/></g></g></svg>